<?xml version="1.0" encoding="UTF-8" standalone="no"?>
<svg width="515px" height="505px" viewBox="0 0 515 505" version="1.1" xmlns="http://www.w3.org/2000/svg" xmlns:xlink="http://www.w3.org/1999/xlink" xmlns:sketch="http://www.bohemiancoding.com/sketch/ns">
    <!-- Generator: Sketch Beta 3.4.2 (15820) - http://www.bohemiancoding.com/sketch -->
    <title>neurofunk_grid_logo</title>
    <desc>Created with Sketch Beta.</desc>
    <defs></defs>
    <g id="SVG" stroke="none" stroke-width="1" fill="none" fill-rule="evenodd" sketch:type="MSPage">
        <g id="Neurofunk-Grid" sketch:type="MSArtboardGroup" transform="translate(-48.000000, -56.000000)" fill="#000000">
            <path d="M349.444101,122.654474 C364.341146,116.695656 380.43997,114.075111 396.430299,114 C396.438645,135.498481 396.430299,156.996961 396.430299,178.487097 C384.103725,178.003047 371.601891,181.466506 361.553688,188.693867 C347.883458,198.266366 338.961923,214.265042 338.177428,230.964755 C364.908653,231.081594 391.664914,230.764458 418.387793,231.123323 C415.258161,232.592163 411.853122,234.227917 408.698454,235.938782 C387.158245,246.838245 368.814433,263.921859 356.371018,284.602463 C354.192795,288.040884 352.498621,291.754713 350.453929,295.2599 C346.331161,295.159752 342.208393,295.176444 338.085626,295.251555 C338.127354,343.280963 338.1357,391.318718 338.07728,439.356472 C327.32804,449.972181 316.687293,460.70473 305.996473,471.387205 C295.305652,460.70473 284.664906,449.972181 273.915665,439.348126 C273.8489,391.310372 273.882283,343.272618 273.898974,295.226518 C269.776206,295.209826 265.661784,295.151406 261.547362,295.2599 C249.587998,271.07411 230.351197,250.426888 206.507579,237.641301 C202.351429,235.36293 198.053402,233.343274 193.905597,231.039866 C220.528328,230.91468 247.151058,230.939717 273.773789,231.03152 C274.483172,212.445683 279.073298,193.943302 287.944759,177.55238 C301.122594,152.7657 323.313766,132.919665 349.444101,122.654474 Z M84.0096368,230.964755 C100.984757,230.9731 117.959877,230.964755 134.943343,230.9731 C143.414212,231.006483 151.926809,230.697693 160.35595,231.849397 C186.72831,235.004065 211.857163,247.405751 230.50142,266.31707 C248.678318,284.519006 260.696103,308.763216 264.101141,334.267625 C265.620056,344.791532 265.144352,355.44897 265.219463,366.047988 C265.236154,411.907519 265.177735,457.76705 265.2445,503.626581 C243.862859,482.161483 222.414452,460.76315 200.991083,439.348126 C200.9577,409.362085 200.991083,379.376045 200.974391,349.398349 C200.698984,335.436021 194.898734,321.673989 185.050827,311.767662 C175.503365,301.961484 162.183654,295.902518 148.496733,295.2599 C148.496733,335.502786 148.52177,375.745672 148.488388,415.988558 C126.973216,394.565189 105.633303,372.96656 84.0096368,351.651684 C83.9929454,311.417144 84.0012911,271.190949 84.0096368,230.964755 Z M451.177983,231.907817 C457.554085,231.03152 464.005299,230.91468 470.431475,230.9731 C489.618201,230.964755 508.796582,230.9731 527.983309,230.964755 C528.008346,261.234549 527.974963,291.504343 528,321.774137 C527.424148,337.789504 524.503159,353.86329 518.035254,368.601767 C507.402853,393.538669 487.932373,414.553101 463.96357,427.196811 C447.222129,436.03489 428.352539,440.867041 409.407837,440.975535 C388.485209,461.823052 367.604308,482.712298 346.748445,503.626581 C346.823556,461.339002 346.748445,419.051424 346.781828,376.772191 C367.420703,376.747154 388.059579,376.780537 408.698454,376.7555 C419.864979,376.705426 430.939701,373.058362 440.036496,366.598803 C451.803909,358.319885 460.149593,345.300619 462.61157,331.104611 C463.696508,325.546386 463.471175,319.871321 463.487866,314.24633 C463.487866,307.911957 463.487866,301.585928 463.496212,295.2599 C443.007559,296.044395 423.603845,309.41418 415.733865,328.367227 C424.438413,336.813059 432.867554,345.542644 441.547064,354.021858 C432.976047,362.768134 420.92488,368.017569 408.665071,368.084335 C388.034542,368.09268 367.404012,368.101026 346.773482,368.075989 C346.890322,356.809316 346.289433,345.475878 347.891804,334.284316 C351.296843,308.763216 363.314627,284.502314 381.508217,266.292033 C400.04398,247.505899 424.980883,235.154288 451.177983,231.907817 Z" id="Fill-2" sketch:type="MSShapeGroup"></path>
        </g>
    </g>
</svg>