<svg id="visual" viewBox="0 0 900 450" width="900" height="450" xmlns="http://www.w3.org/2000/svg" xmlns:xlink="http://www.w3.org/1999/xlink" version="1.1"><rect x="0" y="0" width="900" height="450" fill="#16a34a"></rect><path d="M0 291L30 295.3C60 299.7 120 308.3 180 320.3C240 332.3 300 347.7 360 334C420 320.3 480 277.7 540 265.3C600 253 660 271 720 288.7C780 306.3 840 323.7 870 332.3L900 341L900 0L870 0C840 0 780 0 720 0C660 0 600 0 540 0C480 0 420 0 360 0C300 0 240 0 180 0C120 0 60 0 30 0L0 0Z" fill="#089248"></path><path d="M0 282L30 263.5C60 245 120 208 180 199.3C240 190.7 300 210.3 360 210.2C420 210 480 190 540 195C600 200 660 230 720 232.8C780 235.7 840 211.3 870 199.2L900 187L900 0L870 0C840 0 780 0 720 0C660 0 600 0 540 0C480 0 420 0 360 0C300 0 240 0 180 0C120 0 60 0 30 0L0 0Z" fill="#028746"></path><path d="M0 168L30 159.7C60 151.3 120 134.7 180 127C240 119.3 300 120.7 360 126C420 131.3 480 140.7 540 149.3C600 158 660 166 720 162.5C780 159 840 144 870 136.5L900 129L900 0L870 0C840 0 780 0 720 0C660 0 600 0 540 0C480 0 420 0 360 0C300 0 240 0 180 0C120 0 60 0 30 0L0 0Z" fill="#007d44"></path><path d="M0 129L30 127.5C60 126 120 123 180 112.7C240 102.3 300 84.7 360 86.8C420 89 480 111 540 119.7C600 128.3 660 123.7 720 111.7C780 99.7 840 80.3 870 70.7L900 61L900 0L870 0C840 0 780 0 720 0C660 0 600 0 540 0C480 0 420 0 360 0C300 0 240 0 180 0C120 0 60 0 30 0L0 0Z" fill="#007241"></path></svg>