<svg id="visual" viewBox="0 0 900 100" width="900" height="100" xmlns="http://www.w3.org/2000/svg" xmlns:xlink="http://www.w3.org/1999/xlink" version="1.1"><path d="M0 89L12.5 85.8C25 82.7 50 76.3 75 68.2C100 60 125 50 150 53C175 56 200 72 225 80.7C250 89.3 275 90.7 300 81C325 71.3 350 50.7 375 40.2C400 29.7 425 29.3 450 40.5C475 51.7 500 74.3 525 78.8C550 83.3 575 69.7 600 65.8C625 62 650 68 675 66.2C700 64.3 725 54.7 750 56C775 57.3 800 69.7 825 72.2C850 74.7 875 67.3 887.5 63.7L900 60L900 0L887.5 0C875 0 850 0 825 0C800 0 775 0 750 0C725 0 700 0 675 0C650 0 625 0 600 0C575 0 550 0 525 0C500 0 475 0 450 0C425 0 400 0 375 0C350 0 325 0 300 0C275 0 250 0 225 0C200 0 175 0 150 0C125 0 100 0 75 0C50 0 25 0 12.5 0L0 0Z" fill="#089248"></path><path d="M0 35L12.5 35.3C25 35.7 50 36.3 75 38C100 39.7 125 42.3 150 48C175 53.7 200 62.3 225 61.8C250 61.3 275 51.7 300 47.3C325 43 350 44 375 45.7C400 47.3 425 49.7 450 48.5C475 47.3 500 42.7 525 40.3C550 38 575 38 600 42.3C625 46.7 650 55.3 675 54.7C700 54 725 44 750 39.2C775 34.3 800 34.7 825 31.5C850 28.3 875 21.7 887.5 18.3L900 15L900 0L887.5 0C875 0 850 0 825 0C800 0 775 0 750 0C725 0 700 0 675 0C650 0 625 0 600 0C575 0 550 0 525 0C500 0 475 0 450 0C425 0 400 0 375 0C350 0 325 0 300 0C275 0 250 0 225 0C200 0 175 0 150 0C125 0 100 0 75 0C50 0 25 0 12.5 0L0 0Z" fill="#008245"></path><path d="M0 14L12.5 16C25 18 50 22 75 20.8C100 19.7 125 13.3 150 13.8C175 14.3 200 21.7 225 22.5C250 23.3 275 17.7 300 13.8C325 10 350 8 375 12.8C400 17.7 425 29.3 450 29.3C475 29.3 500 17.7 525 13.3C550 9 575 12 600 13.2C625 14.3 650 13.7 675 15.8C700 18 725 23 750 28.8C775 34.7 800 41.3 825 43.7C850 46 875 44 887.5 43L900 42L900 0L887.5 0C875 0 850 0 825 0C800 0 775 0 750 0C725 0 700 0 675 0C650 0 625 0 600 0C575 0 550 0 525 0C500 0 475 0 450 0C425 0 400 0 375 0C350 0 325 0 300 0C275 0 250 0 225 0C200 0 175 0 150 0C125 0 100 0 75 0C50 0 25 0 12.5 0L0 0Z" fill="#007241"></path></svg>